<svg width="161" height="30" viewBox="0 0 161 30" fill="none" xmlns="http://www.w3.org/2000/svg">
<g filter="url(#filter0_d_39_3)">
<path d="M11.5642 1.49154C13.6506 1.49154 15.0219 2.40577 15.6783 4.23423C18.6085 2.10102 21.0465 1.03442 22.9921 1.03442C24.9378 1.03442 26.2271 1.81972 26.86 3.39033C29.2042 1.81972 31.2554 1.03442 33.0135 1.03442C34.3497 1.03442 35.4398 1.40949 36.2837 2.15963C37.1276 2.88633 37.5495 3.95293 37.5495 5.35944C37.5495 6.74251 37.0338 9.41488 36.0024 13.3766C34.9944 17.3382 34.4904 20.1513 34.4904 21.8156C34.4904 22.4251 34.6193 22.7299 34.8772 22.7299C35.3694 22.7299 35.9672 22.5892 36.6705 22.3079L37.4089 24.1012C35.2288 25.6484 33.0721 26.422 30.9389 26.422C29.9309 26.422 29.1222 26.1172 28.5127 25.5077C27.9032 24.8982 27.5985 24.0074 27.5985 22.8353C27.5985 21.6398 28.0907 19.0612 29.0753 15.0995C30.0599 11.1144 30.5521 8.54754 30.5521 7.39888C30.5521 6.22679 30.0599 5.64074 29.0753 5.64074C28.5361 5.64074 27.8915 5.86344 27.1413 6.30884C27.0241 7.24651 26.6959 8.864 26.1568 11.1613C24.6331 17.514 23.8126 22.3079 23.6954 25.5429C22.4999 25.9414 20.3198 26.1407 17.1551 26.1407H16.5573C16.5573 24.7341 17.1551 21.5343 18.3506 16.5412C19.5696 11.5481 20.1791 8.62958 20.1791 7.78568C20.1791 6.35572 19.7454 5.64074 18.8781 5.64074C18.3858 5.64074 17.5067 6.07442 16.2409 6.94177C16.2878 7.78567 16.3112 8.45377 16.3112 8.94605C16.3112 12.3217 15.8424 15.416 14.9047 18.229C13.9905 21.042 12.7246 23.2573 11.1071 24.8748C9.48962 26.4923 7.70804 27.301 5.76237 27.301C4.30897 27.301 3.13688 26.8322 2.24609 25.8945C1.37874 24.9568 0.945065 23.6089 0.945065 21.8508C0.945065 20.0927 1.70693 18.018 3.23065 15.627C4.75437 13.2359 6.94618 10.798 9.80609 8.31312C9.80609 7.14102 9.7006 6.33228 9.48962 5.88688C9.30209 5.44149 8.99734 5.21879 8.57539 5.21879C7.56739 5.21879 6.05539 5.94549 4.03939 7.39888L2.63288 5.64074C3.73465 4.58586 5.106 3.63647 6.74693 2.79256C8.4113 1.92521 10.0171 1.49154 11.5642 1.49154ZM3.68776 21.7101C3.68776 22.3431 3.82841 22.8588 4.10972 23.2573C4.39102 23.6558 4.75437 23.8551 5.19976 23.8551C6.32497 23.8551 7.33297 22.7064 8.22376 20.4091C9.138 18.0884 9.67716 15.1581 9.84125 11.6184C8.13 13.0718 6.6766 14.7831 5.48107 16.7522C4.28553 18.6979 3.68776 20.3505 3.68776 21.7101ZM56.8149 11.7591C56.3226 13.2828 55.9007 15.0995 55.549 17.2093C55.1974 19.2956 55.0216 20.7607 55.0216 21.6047C55.0216 22.4251 55.1505 22.8353 55.4084 22.8353L57.1665 22.3431L57.7994 24.1012C57.0493 24.6873 56.0882 25.2264 54.9161 25.7187C53.7675 26.1875 52.7477 26.422 51.8569 26.422C50.3332 26.422 49.3721 25.7656 48.9736 24.4528C47.1217 25.7656 45.4808 26.422 44.0508 26.422C42.6443 26.422 41.5542 25.9062 40.7807 24.8748C40.0071 23.8433 39.6203 22.3665 39.6203 20.4443C39.6203 17.7953 40.3001 15.4629 41.6597 13.4469C43.0194 11.4309 44.8127 10.4229 47.0396 10.4229C48.2586 10.4229 49.501 10.7628 50.7669 11.4426C50.9544 11.0207 51.1068 10.7159 51.224 10.5284C52.9118 10.5284 54.7755 10.9386 56.8149 11.7591ZM46.2309 20.0223C46.2309 21.1944 46.3129 21.9328 46.477 22.2376C46.6411 22.5423 46.9459 22.6947 47.3913 22.6947C47.8367 22.6947 48.2703 22.5189 48.6923 22.1673C48.7861 19.448 49.2315 16.5998 50.0285 13.6227C49.6768 13.4117 49.2666 13.3062 48.7978 13.3062C48.3524 13.3062 47.9421 13.5641 47.5671 14.0798C47.2155 14.5955 46.9459 15.2402 46.7583 16.0138C46.4067 17.4906 46.2309 18.8268 46.2309 20.0223ZM68.8494 2.05414C68.8494 3.69507 68.2516 7.0707 67.0561 12.181C69.0721 11.0324 70.6544 10.458 71.803 10.458C72.9751 10.458 73.8425 10.7745 74.4051 11.4074C74.9677 12.0169 75.249 12.7905 75.249 13.7282C75.249 14.6424 74.9911 16.0958 74.4754 18.0884C73.9597 20.0575 73.7018 21.3468 73.7018 21.9563C73.7018 22.5658 73.7956 22.8705 73.9831 22.8705L75.8116 22.3782L76.4445 24.1364C75.7178 24.6755 74.7098 25.1913 73.4205 25.6835C72.1547 26.1758 71.0295 26.422 70.0449 26.422C68.1461 26.422 67.1967 25.3436 67.1967 23.187C67.1967 22.2024 67.4428 20.749 67.9351 18.8268C68.4274 16.9046 68.6735 15.6973 68.6735 15.205C68.6735 14.6893 68.4977 14.4314 68.1461 14.4314C67.6538 14.4314 67.0561 14.6659 66.3528 15.1347C65.2979 19.6121 64.7705 22.7299 64.7705 24.488L64.8056 25.3319C62.4146 25.9648 60.2696 26.2813 58.3708 26.2813C58.2302 26.211 58.1599 25.8359 58.1599 25.1561C58.1599 23.7027 58.8514 20.1044 60.2345 14.3611C61.641 8.61786 62.3442 4.74995 62.3442 2.7574C62.3442 2.14791 62.2974 1.60874 62.2036 1.13991C64.4775 0.506978 66.6107 0.190512 68.6032 0.190512C68.7673 0.589024 68.8494 1.21023 68.8494 2.05414ZM78.5172 26.211H77.6381C77.6381 24.5466 77.9546 22.2259 78.5875 19.2487C79.2439 16.2482 79.5721 14.5838 79.5721 14.2556C79.5721 13.9274 79.4666 13.5641 79.2556 13.1656C79.0446 12.7671 78.8337 12.4623 78.6227 12.2513L78.3062 11.9349L78.3765 11.4074C79.7362 10.962 82.139 10.7393 85.5849 10.7393C85.8428 11.2785 86.0186 11.8528 86.1124 12.4623C88.1518 11.1261 89.8748 10.458 91.2813 10.458C92.0314 10.458 92.6644 10.6573 93.1801 11.0558C93.7192 11.4543 94.0943 11.9818 94.3053 12.6381C96.251 11.1847 98.0325 10.458 99.65 10.458C100.705 10.458 101.525 10.7862 102.111 11.4426C102.721 12.0755 103.026 12.8491 103.026 13.7633C103.026 14.6541 102.768 16.1075 102.252 18.1235C101.736 20.1395 101.479 21.4406 101.479 22.0266C101.479 22.5892 101.572 22.8705 101.76 22.8705L103.588 22.4134L104.221 24.1715C103.518 24.7341 102.545 25.2499 101.303 25.7187C100.084 26.1875 98.9819 26.422 97.9974 26.422C95.9814 26.422 94.9734 25.4022 94.9734 23.3628C94.9734 22.4954 95.2195 21.0186 95.7118 18.9323C96.2041 16.846 96.4502 15.5801 96.4502 15.1347C96.4502 14.6659 96.2744 14.4314 95.9228 14.4314C95.4305 14.4314 94.9031 14.6307 94.3405 15.0292C94.2701 15.3808 94.0826 16.2247 93.7779 17.5609C93.1215 20.5615 92.7933 23.2221 92.7933 25.5429C91.715 25.9414 89.6169 26.1407 86.4992 26.1407C86.4288 25.8828 86.3937 25.2733 86.3937 24.3122C86.3937 23.3511 86.6515 21.6515 87.1672 19.2136C87.683 16.7756 87.9408 15.3691 87.9408 14.994C87.9408 14.619 87.7767 14.4314 87.4485 14.4314C87.05 14.4314 86.5343 14.619 85.9014 14.994C85.8311 15.3926 85.6084 16.4123 85.2333 18.0532C84.4363 21.4992 84.0378 24.0074 84.0378 25.578C82.936 26 81.0958 26.211 78.5172 26.211ZM110.798 26.422C108.97 26.422 107.528 25.8476 106.473 24.699C105.418 23.5269 104.891 21.886 104.891 19.7762C104.891 17.1976 105.653 15.0175 107.176 13.2359C108.7 11.4309 110.704 10.5284 113.189 10.5284L114.771 10.669C115.334 10.5049 115.861 10.4229 116.354 10.4229C117.526 10.4229 118.358 10.8214 118.85 11.6184C119.366 12.4154 119.659 13.5524 119.729 15.0292C120.714 14.9823 121.652 14.83 122.542 14.5721L123.035 14.4314C123.199 14.5955 123.316 15.0878 123.386 15.9083L123.421 16.2951C122.367 16.8342 121.077 17.2562 119.554 17.5609C119.038 20.0458 118.018 22.1438 116.494 23.8551C114.971 25.5663 113.072 26.422 110.798 26.422ZM111.501 19.6355C111.501 21.8156 112.052 22.9057 113.154 22.9057C113.928 22.9057 114.713 22.4134 115.51 21.4288C116.33 20.4443 116.893 19.2487 117.198 17.8422C114.807 17.8422 113.611 16.6936 113.611 14.3963C113.611 13.9978 113.646 13.5875 113.717 13.1656C113.482 13.1656 113.306 13.2007 113.189 13.2711C112.791 13.693 112.404 14.5487 112.029 15.838C111.677 17.1038 111.501 18.3697 111.501 19.6355ZM120.767 23.1518C120.767 22.1673 121.072 20.5498 121.682 18.2993C122.315 16.0489 122.631 14.6659 122.631 14.1501C122.631 13.6344 122.209 12.8843 121.365 11.8997L121.436 11.3723C123.569 10.9034 126.065 10.669 128.925 10.669C129.113 11.0675 129.207 11.7005 129.207 12.5678C129.207 13.4352 128.878 15.0761 128.222 17.4906C127.589 19.9051 127.273 21.3351 127.273 21.7805C127.273 22.39 127.566 22.6947 128.152 22.6947C128.55 22.6947 129.054 22.5423 129.664 22.2376C129.734 21.8625 129.945 20.878 130.297 19.2839C131.117 15.7442 131.527 13.0953 131.527 11.3371C132.606 10.8683 134.446 10.6339 137.048 10.6339H137.997C137.997 11.6887 137.681 13.7516 137.048 16.8225C136.438 19.8934 136.122 21.6633 136.098 22.1321C136.098 22.6009 136.204 22.8353 136.415 22.8353L138.138 22.3782L138.771 24.1364C138.091 24.6755 137.106 25.1913 135.817 25.6835C134.528 26.1758 133.391 26.422 132.406 26.422C130.953 26.422 130.05 25.8359 129.699 24.6638C127.753 25.8359 125.89 26.422 124.108 26.422C121.881 26.422 120.767 25.3319 120.767 23.1518ZM151.851 26.422C150.398 26.422 149.46 25.8593 149.038 24.7341C147.257 25.8593 145.662 26.422 144.256 26.422C142.873 26.422 141.748 25.9531 140.88 25.0154C140.036 24.0543 139.614 22.5072 139.614 20.374C139.614 17.5844 140.318 15.2285 141.724 13.3062C143.154 11.384 144.994 10.4229 147.245 10.4229C148.347 10.4229 149.448 10.6807 150.55 11.1965C151.417 7.23479 151.851 4.3866 151.851 2.65191C151.851 2.13619 151.816 1.62047 151.746 1.10475C153.926 0.495257 156.024 0.190512 158.04 0.190512C158.227 0.495257 158.321 1.22195 158.321 2.3706C158.321 3.49581 157.782 6.54326 156.704 11.5129C155.649 16.4826 155.121 19.8113 155.121 21.4992C155.121 22.39 155.274 22.8353 155.578 22.8353L157.09 22.3431L157.723 24.1364C155.66 25.6601 153.703 26.422 151.851 26.422ZM147.245 22.8705C147.667 22.8705 148.136 22.7299 148.651 22.4486V22.4134C148.745 20.5146 149.202 17.5258 150.023 13.4469C149.554 13.3062 149.214 13.2359 149.003 13.2359C148.511 13.2359 148.077 13.482 147.702 13.9743C147.327 14.4666 147.034 15.0995 146.823 15.8731C146.424 17.4672 146.225 19.0378 146.225 20.5849C146.225 22.1087 146.565 22.8705 147.245 22.8705Z" fill="url(#paint0_radial_39_3)"/>
</g>
<defs>
<filter id="filter0_d_39_3" x="0.945068" y="0.190521" width="159.655" height="29.3896" filterUnits="userSpaceOnUse" color-interpolation-filters="sRGB">
<feFlood flood-opacity="0" result="BackgroundImageFix"/>
<feColorMatrix in="SourceAlpha" type="matrix" values="0 0 0 0 0 0 0 0 0 0 0 0 0 0 0 0 0 0 127 0" result="hardAlpha"/>
<feOffset dx="2.27907" dy="2.27907"/>
<feComposite in2="hardAlpha" operator="out"/>
<feColorMatrix type="matrix" values="0 0 0 0 0.929415 0 0 0 0 0.498 0 0 0 0 0.125682 0 0 0 1 0"/>
<feBlend mode="normal" in2="BackgroundImageFix" result="effect1_dropShadow_39_3"/>
<feBlend mode="normal" in="SourceGraphic" in2="effect1_dropShadow_39_3" result="shape"/>
</filter>
<radialGradient id="paint0_radial_39_3" cx="0" cy="0" r="1" gradientUnits="userSpaceOnUse" gradientTransform="translate(79 15.5) rotate(90.0513) scale(162.5 206.729)">
<stop stop-color="#FFD37D"/>
<stop offset="1" stop-color="#FFA800"/>
</radialGradient>
</defs>
</svg>
